<?xml version="1.0" encoding="utf-8"?>
<?xml-stylesheet type="text/xsl" href="rss1.xsl"?>
<rss version="2.0" xmlns:atom="http://www.w3.org/2005/Atom" xmlns:content="http://purl.org/rss/1.0/modules/content/" xmlns:dc="http://purl.org/dc/elements/1.1/" xmlns:media="http://search.yahoo.com/mrss/">
<channel>
 <title>Getty</title>
 <link>http://www.gettyimg.com/</link>
 <atom:link href="http://www.gettyimg.com/" rel="self" type="application/rss+xml" />

 
                <item>
                <title><![CDATA[【Apple Music】WEB-RiP - Conan Gray - Lonely Dancers [Apple HD Music Video]]]></title>
                <link><![CDATA[https://sharemania.us/threads/conan-gray-lonely-dancers-apple-hd-music-video.242690/]]></link>
                <description><![CDATA[<article>
<blockquote class="messageText SelectQuoteContainer ugc baseHtml">
<span style="font-size: 22px"><b>Conan Gray - Lonely Dancers [Apple HD Music Video]</b></span><br>
<br>
<img src="https://imgur.com/Ei4XMaK.jpg" class="bbCodeImage LbImage" alt="[​IMG]" data-url="https://imgur.com/Ei4XMaK.jpg" style=""><br>
<br>
<div class="bbCodeBlock bbCodeCode">
<div class="type">Code:</div>
<pre>General
Format                         : MPEG-4
Codec ID                       : M4V  (isom/iso4/M4V /mp42)
File size                      : 225 MiB
Duration                       : 3 min 6 s
Overall bit rate mode          : Variable
Overall bit rate               : 10.1 Mb/s
Movie name                     : Lonely Dancers
Performer                      : Conan Gray
Genre                          : Pop
ContentType                    : Music Video
Recorded date                  : UTC 2024-02-09 08:00:00
Encoded date                   : UTC 2024-04-07 18:23:42
Tagged date                    : UTC 2024-04-07 18:23:42
Copyright                      : ℗ 2024 Republic Records, a division of UMG Recordings, Inc.
Cover                          : Yes
Rating                         : None
GenreID                        : 1614
AppleStoreCountry              : United Kingdom
AlbumTitleID                   : 1168567308
AppleStoreCatalogID            : 1729446288

Video
ID                             : 2
Format                         : AVC
Format/Info                    : Advanced Video Codec
Format profile                 : High@L4
Format settings                : CABAC / 5 Ref Frames
Format settings, CABAC         : Yes
Format settings, Reference fra : 5 frames
Codec ID                       : avc1
Codec ID/Info                  : Advanced Video Coding
Duration                       : 3 min 6 s
Bit rate                       : 9 854 kb/s
Maximum bit rate               : 19.0 Mb/s
Width                          : 1 920 pixels
Height                         : 858 pixels
Display aspect ratio           : 2.25:1
Frame rate mode                : Constant
Frame rate                     : 23.976 (24000/1001) FPS
Color space                    : YUV
Chroma subsampling             : 4:2:0
Bit depth                      : 8 bits
Scan type                      : Progressive
Bits/(Pixel*Frame)             : 0.249
Stream size                    : 219 MiB (97%)
Title                          : Core Media Video
Language                       : English
Encoded date                   : UTC 2024-02-15 03:59:52
Tagged date                    : UTC 2024-04-07 18:23:46
Color range                    : Limited
Color primaries                : BT.709
Transfer characteristics       : BT.709
Matrix coefficients            : BT.709
Codec configuration box        : avcC

Audio
ID                             : 1
Format                         : AAC LC
Format/Info                    : Advanced Audio Codec Low Complexity
Codec ID                       : mp4a-40-2
Duration                       : 3 min 6 s
Duration_LastFrame             : -2 ms
Bit rate mode                  : Variable
Bit rate                       : 265 kb/s
Maximum bit rate               : 429 kb/s
Channel(s)                     : 2 channels
Channel layout                 : L R
Sampling rate                  : 48.0 kHz
Frame rate                     : 46.875 FPS (1024 SPF)
Compression mode               : Lossy
Stream size                    : 5.84 MiB (3%)
Title                          : Core Media Audio
Encoded date                   : UTC 2024-02-15 03:59:38
Tagged date                    : UTC 2024-04-07 18:23:46

Text
ID                             : 3
Format                         : EIA-608
Codec ID                       : c608
Duration                       : 3 min 4 s
Bit rate mode                  : Variable
Bit rate                       : 125 b/s
Maximum bit rate               : 784 b/s
Frame rate                     : 0.417 FPS
Stream size                    : 2.81 KiB (0%)
Title                          : Core Media Closed Caption
Language                       : English
Forced                         : No
Encoded date                   : UTC 2024-02-15 03:59:52
Tagged date                    : UTC 2024-04-07 18:23:46
</pre>
</div>
<div class="bbCodeBlock bbCodeVfcHH HiddenContent">
<div class="attribution type">Hidden Content:</div>
<blockquote>You must reply before you can see the hidden data contained here.</blockquote>
</div>
<div class="messageTextEndMarker">&nbsp;</div>
</blockquote>
</article>]]></description>
                <author><![CDATA[Mu$iC @$YLUM]]></author>
                </item>

                </channel></rss>